<?xml version="1.0" standalone="no"?>
<!DOCTYPE svg PUBLIC "-//W3C//DTD SVG 20010904//EN"
 "http://www.w3.org/TR/2001/REC-SVG-20010904/DTD/svg10.dtd">
<svg version="1.0" xmlns="http://www.w3.org/2000/svg"
 width="512.000000pt" height="512.000000pt" viewBox="0 0 512.000000 512.000000"
 preserveAspectRatio="xMidYMid meet">

<g transform="translate(0.000000,512.000000) scale(0.100000,-0.100000)"
fill="#fff" stroke="none">
<path d="M4223 5110 c-336 -60 -595 -337 -631 -675 -18 -161 18 -315 148 -630
32 -77 85 -197 118 -267 l60 -126 -51 -26 c-107 -52 -201 -151 -248 -259 -18
-43 -29 -57 -45 -57 -30 0 -74 -47 -74 -80 0 -36 33 -77 69 -85 21 -4 31 -14
36 -33 18 -73 104 -180 195 -242 54 -36 159 -86 230 -109 143 -45 396 -55 555
-22 421 87 642 400 479 679 -37 64 -127 149 -208 196 -36 21 -66 40 -66 42 0
2 31 70 69 151 38 81 96 216 129 298 159 398 169 580 45 835 -40 82 -60 108
-142 190 -108 107 -201 163 -331 200 -86 24 -255 34 -337 20z m252 -175 c277
-58 493 -335 472 -605 -17 -202 -226 -711 -458 -1109 -58 -100 -78 -126 -105
-137 -62 -26 -90 -2 -184 161 -166 288 -354 714 -416 941 -89 327 79 636 401
737 95 30 186 34 290 12z m-406 -1797 c38 -68 83 -137 99 -155 84 -90 231
-105 332 -32 42 30 69 70 159 227 l47 82 49 -26 c107 -57 178 -138 190 -218
24 -158 -164 -310 -439 -357 -88 -15 -311 -6 -391 15 -85 23 -213 88 -267 136
-119 105 -120 242 -1 350 42 39 123 92 150 100 1 0 33 -55 72 -122z"/>
<path d="M4278 4770 c-110 -19 -215 -88 -278 -182 -187 -281 13 -658 349 -658
126 0 218 38 307 127 231 231 108 640 -212 708 -75 16 -96 17 -166 5z m177
-184 c197 -83 197 -378 0 -467 -87 -40 -221 -13 -287 57 -82 88 -91 238 -19
330 71 91 200 124 306 80z"/>
<path d="M900 3734 c-92 -20 -215 -62 -285 -97 -260 -130 -468 -373 -558 -652
-40 -125 -50 -190 -51 -330 -1 -105 4 -148 23 -225 79 -319 211 -651 447
-1128 80 -162 144 -295 142 -296 -1 -2 -45 -15 -97 -30 -248 -70 -415 -179
-487 -317 -24 -45 -29 -67 -29 -129 0 -100 32 -166 118 -247 141 -130 346
-213 649 -260 136 -21 494 -24 633 -5 394 54 684 193 775 372 16 31 26 40 46
40 14 0 36 11 49 25 47 46 25 119 -43 140 -14 4 -31 26 -48 61 -64 136 -240
251 -488 321 -53 15 -96 31 -96 35 0 4 42 90 94 190 229 442 413 895 488 1198
92 372 -17 755 -294 1030 -162 162 -352 261 -582 305 -97 19 -317 18 -406 -1z
m463 -188 c376 -112 632 -416 677 -802 18 -158 -6 -291 -107 -573 -145 -410
-383 -911 -615 -1298 -43 -73 -90 -141 -105 -153 -61 -48 -151 -46 -211 5 -16
13 -61 77 -99 142 -297 499 -596 1165 -696 1553 -56 221 -40 420 53 617 114
245 314 419 575 504 101 32 150 38 300 35 116 -3 155 -8 228 -30z m-588 -2798
c79 -132 142 -190 237 -219 85 -26 154 -21 239 17 73 33 123 86 194 204 32 52
58 96 59 97 4 5 197 -48 247 -67 156 -62 278 -157 292 -230 16 -78 -58 -162
-208 -235 -332 -163 -907 -189 -1310 -58 -188 60 -335 164 -350 247 -23 117
159 250 440 321 49 13 92 24 95 24 3 0 32 -45 65 -101z"/>
<path d="M1025 3324 c-351 -57 -595 -335 -595 -679 0 -312 208 -580 511 -661
78 -20 242 -23 319 -5 30 7 98 33 150 58 81 39 107 58 180 132 63 63 95 106
123 161 101 203 102 417 4 620 -34 69 -58 101 -132 175 -98 99 -181 148 -304
180 -66 17 -204 27 -256 19z m186 -178 c234 -50 409 -265 409 -501 0 -247
-193 -470 -437 -505 -204 -28 -407 70 -513 249 -68 115 -88 257 -55 386 47
178 206 330 388 370 81 18 128 18 208 1z"/>
<path d="M3015 3038 c-31 -36 -29 -79 5 -113 18 -17 36 -20 128 -23 117 -3
146 5 171 49 17 31 9 71 -21 99 -19 18 -35 20 -139 20 l-117 0 -27 -32z"/>
<path d="M2640 3015 c-90 -49 -124 -85 -124 -131 0 -28 7 -42 28 -60 36 -32
68 -30 119 5 23 15 65 40 93 54 63 32 83 70 64 117 -25 61 -85 66 -180 15z"/>
<path d="M2418 2639 c-29 -29 -30 -33 -25 -89 9 -77 42 -165 74 -190 35 -27
78 -26 108 5 29 28 32 68 11 120 -8 19 -18 56 -22 82 -5 32 -16 56 -35 75 -37
37 -72 36 -111 -3z"/>
<path d="M2729 2291 c-35 -27 -43 -63 -24 -102 22 -42 54 -51 173 -53 102 -1
104 0 128 27 50 59 14 137 -64 137 -21 0 -72 3 -113 6 -65 6 -77 4 -100 -15z"/>
<path d="M3225 2275 c-34 -33 -34 -83 1 -116 24 -22 33 -24 139 -24 106 0 115
2 139 24 34 32 36 88 3 119 -21 20 -34 22 -141 22 -111 0 -118 -1 -141 -25z"/>
<path d="M3730 2280 c-46 -46 -34 -111 25 -136 45 -19 185 -19 230 1 58 23 70
90 25 135 -18 18 -34 20 -140 20 -106 0 -122 -2 -140 -20z"/>
<path d="M4249 2285 c-15 -8 -32 -28 -38 -45 -19 -56 16 -103 84 -115 22 -4
62 -13 89 -21 68 -19 91 -18 121 9 20 16 27 33 28 60 1 51 -25 75 -109 97
-110 28 -146 31 -175 15z"/>
<path d="M4685 2065 c-17 -16 -25 -35 -25 -59 0 -30 11 -46 83 -120 88 -91
105 -98 156 -71 61 31 57 85 -14 169 -90 105 -151 130 -200 81z"/>
<path d="M4962 1663 c-7 -3 -19 -18 -28 -34 -13 -27 -13 -40 3 -137 20 -122
38 -152 95 -152 70 1 93 43 78 147 -15 110 -28 150 -53 168 -21 14 -69 19 -95
8z"/>
<path d="M4953 1164 c-22 -11 -38 -36 -70 -107 -51 -110 -49 -104 -40 -144 9
-45 55 -69 103 -53 30 10 40 23 79 104 52 105 57 151 23 183 -31 28 -61 33
-95 17z"/>
<path d="M4584 715 c-105 -63 -126 -93 -104 -145 15 -36 37 -50 79 -50 36 0
119 44 179 96 51 44 57 89 17 129 -36 37 -69 31 -171 -30z"/>
<path d="M2524 590 c-55 -22 -69 -90 -29 -134 23 -25 27 -26 142 -26 129 1
146 6 164 58 14 41 -9 86 -52 101 -37 13 -194 14 -225 1z"/>
<path d="M3024 586 c-20 -9 -35 -26 -42 -45 -13 -36 -8 -56 21 -88 19 -21 29
-23 139 -23 113 0 120 1 143 25 32 31 32 75 1 112 -23 27 -28 28 -128 31 -72
1 -112 -2 -134 -12z"/>
<path d="M3540 593 c-61 -22 -79 -95 -35 -138 23 -24 30 -25 143 -25 111 0
120 1 140 23 23 25 29 75 12 107 -5 10 -24 23 -41 29 -32 11 -191 14 -219 4z"/>
<path d="M4045 593 c-68 -17 -83 -106 -26 -150 10 -8 56 -12 131 -12 120 0
136 4 158 46 19 35 14 63 -17 94 -29 28 -32 29 -128 28 -54 -1 -107 -4 -118
-6z"/>
</g>
</svg>
