<?xml version="1.0" encoding="utf-8"?>
<!-- Svg Vector Icons : http://www.onlinewebfonts.com/icon -->
<!DOCTYPE svg PUBLIC "-//W3C//DTD SVG 1.1//EN" "http://www.w3.org/Graphics/SVG/1.1/DTD/svg11.dtd">
<svg version="1.1" xmlns="http://www.w3.org/2000/svg" xmlns:xlink="http://www.w3.org/1999/xlink" x="0px" y="0px" viewBox="0 0 1000 1000" enable-background="new 0 0 1000 1000" xml:space="preserve">
<metadata> Svg Vector Icons : http://www.onlinewebfonts.com/icon </metadata>
<g><path d="M67.4,494.8H10v117.5h57.4V494.8z M67.4,341.4H10v117.5h57.4V341.4z M67.4,651.5H10V769h57.4V651.5z M156.2,208.5v-57.4C75.5,151.1,10,216.5,10,297.3h57.4C67.5,248.2,107.2,208.6,156.2,208.5z M67.4,809.6H10c0,80.8,65.4,146.2,146.2,146.2v-57.4C107.2,898.3,67.5,858.6,67.4,809.6z M626.3,200.1v-49H508.8v57.4h107.8C619.8,205.7,623,202.9,626.3,200.1z M472.9,151.1H355.3v57.4h117.5V151.1z M316.2,151.1H198.7v57.4h117.5V151.1z M818.2,458.9v-65.6c-17.2,21.5-34.2,43.4-50.9,65.6H818.2z M760.8,769h57.4V651.5h-57.4V769z M670.4,898.3v57.5c80.8,0,146.2-65.5,146.2-146.2h-57.4C759.1,858.6,719.4,898.2,670.4,898.3z M760.8,612.3h57.4V494.8h-57.4V612.3z M355.4,957.7h117.5v-57.4H355.4V957.7z M508.8,957.7h117.5v-57.4H508.8V957.7z M198.7,957.7h117.5v-57.4H198.7V957.7z M967.2,42.3c-269.3,165.1-464.7,373.5-552.5,478l-215-168.5l-95,76.5l371.6,377.9c64-163.8,266.5-483.9,513.8-711.4L967.2,42.3z"/></g>
</svg>